<mxfile host="app.diagrams.net" modified="2020-11-14T08:23:19.881Z" agent="5.0 (Macintosh; Intel Mac OS X 10_14_6) AppleWebKit/537.36 (KHTML, like Gecko) Chrome/86.0.4240.111 Safari/537.36" etag="kG0SH7VLnRlZ7FmcNRSD" version="13.9.7" type="github">
  <diagram id="St_AWvdvaSm6BSlJQJA_" name="Page-1">
    <mxGraphModel dx="1426" dy="737" grid="1" gridSize="10" guides="1" tooltips="1" connect="1" arrows="1" fold="1" page="1" pageScale="1" pageWidth="827" pageHeight="1169" math="0" shadow="0">
      <root>
        <mxCell id="0" />
        <mxCell id="1" parent="0" />
        <mxCell id="Xv19dBweNixnyUY2rDr5-1" value="app" style="html=1;" vertex="1" parent="1">
          <mxGeometry x="160" y="90" width="110" height="50" as="geometry" />
        </mxCell>
        <mxCell id="Xv19dBweNixnyUY2rDr5-2" value="web" style="html=1;" vertex="1" parent="1">
          <mxGeometry x="10" y="90" width="110" height="50" as="geometry" />
        </mxCell>
        <mxCell id="Xv19dBweNixnyUY2rDr5-3" value="DB" style="html=1;" vertex="1" parent="1">
          <mxGeometry x="310" y="90" width="110" height="50" as="geometry" />
        </mxCell>
        <mxCell id="Xv19dBweNixnyUY2rDr5-4" value="商品中心" style="html=1;" vertex="1" parent="1">
          <mxGeometry x="570" y="90" width="110" height="50" as="geometry" />
        </mxCell>
        <mxCell id="Xv19dBweNixnyUY2rDr5-5" value="es" style="html=1;" vertex="1" parent="1">
          <mxGeometry x="717" y="90" width="110" height="50" as="geometry" />
        </mxCell>
        <mxCell id="Xv19dBweNixnyUY2rDr5-6" value="库存上报" style="html=1;" vertex="1" parent="1">
          <mxGeometry x="880" y="90" width="110" height="50" as="geometry" />
        </mxCell>
        <mxCell id="Xv19dBweNixnyUY2rDr5-7" value="" style="html=1;points=[];perimeter=orthogonalPerimeter;" vertex="1" parent="1">
          <mxGeometry x="60" y="180" width="10" height="80" as="geometry" />
        </mxCell>
        <mxCell id="Xv19dBweNixnyUY2rDr5-10" style="edgeStyle=orthogonalEdgeStyle;rounded=0;orthogonalLoop=1;jettySize=auto;html=1;" edge="1" parent="1" source="Xv19dBweNixnyUY2rDr5-8">
          <mxGeometry relative="1" as="geometry">
            <mxPoint x="80" y="220" as="targetPoint" />
          </mxGeometry>
        </mxCell>
        <mxCell id="Xv19dBweNixnyUY2rDr5-8" value="" style="html=1;points=[];perimeter=orthogonalPerimeter;" vertex="1" parent="1">
          <mxGeometry x="620" y="180" width="10" height="80" as="geometry" />
        </mxCell>
        <mxCell id="Xv19dBweNixnyUY2rDr5-26" style="edgeStyle=orthogonalEdgeStyle;rounded=0;orthogonalLoop=1;jettySize=auto;html=1;" edge="1" parent="1" source="Xv19dBweNixnyUY2rDr5-12" target="Xv19dBweNixnyUY2rDr5-25">
          <mxGeometry relative="1" as="geometry" />
        </mxCell>
        <mxCell id="Xv19dBweNixnyUY2rDr5-52" value="" style="edgeStyle=orthogonalEdgeStyle;rounded=0;orthogonalLoop=1;jettySize=auto;html=1;" edge="1" parent="1" source="Xv19dBweNixnyUY2rDr5-12" target="Xv19dBweNixnyUY2rDr5-28">
          <mxGeometry relative="1" as="geometry" />
        </mxCell>
        <mxCell id="Xv19dBweNixnyUY2rDr5-12" value="" style="html=1;points=[];perimeter=orthogonalPerimeter;" vertex="1" parent="1">
          <mxGeometry x="60" y="290" width="10" height="80" as="geometry" />
        </mxCell>
        <mxCell id="Xv19dBweNixnyUY2rDr5-30" style="edgeStyle=orthogonalEdgeStyle;rounded=0;orthogonalLoop=1;jettySize=auto;html=1;" edge="1" parent="1" source="Xv19dBweNixnyUY2rDr5-25">
          <mxGeometry relative="1" as="geometry">
            <mxPoint x="340" y="330" as="targetPoint" />
          </mxGeometry>
        </mxCell>
        <mxCell id="Xv19dBweNixnyUY2rDr5-25" value="" style="html=1;points=[];perimeter=orthogonalPerimeter;" vertex="1" parent="1">
          <mxGeometry x="220" y="290" width="10" height="80" as="geometry" />
        </mxCell>
        <mxCell id="Xv19dBweNixnyUY2rDr5-27" value="确认拣货单" style="text;html=1;strokeColor=none;fillColor=none;align=center;verticalAlign=middle;whiteSpace=wrap;rounded=0;" vertex="1" parent="1">
          <mxGeometry x="130" y="300" width="70" height="20" as="geometry" />
        </mxCell>
        <mxCell id="Xv19dBweNixnyUY2rDr5-28" value="生成拣货单" style="text;html=1;strokeColor=none;fillColor=none;align=center;verticalAlign=middle;whiteSpace=wrap;rounded=0;" vertex="1" parent="1">
          <mxGeometry x="10" y="310" width="40" height="20" as="geometry" />
        </mxCell>
        <mxCell id="Xv19dBweNixnyUY2rDr5-31" value="" style="html=1;points=[];perimeter=orthogonalPerimeter;" vertex="1" parent="1">
          <mxGeometry x="350" y="280" width="10" height="90" as="geometry" />
        </mxCell>
        <mxCell id="Xv19dBweNixnyUY2rDr5-32" value="提交拣货单&lt;br&gt;" style="text;html=1;strokeColor=none;fillColor=none;align=center;verticalAlign=middle;whiteSpace=wrap;rounded=0;" vertex="1" parent="1">
          <mxGeometry x="250" y="310" width="70" height="20" as="geometry" />
        </mxCell>
        <mxCell id="Xv19dBweNixnyUY2rDr5-33" value="" style="html=1;points=[];perimeter=orthogonalPerimeter;" vertex="1" parent="1">
          <mxGeometry x="760" y="280" width="10" height="160" as="geometry" />
        </mxCell>
        <mxCell id="Xv19dBweNixnyUY2rDr5-35" value="上报拣货数据" style="html=1;verticalAlign=bottom;endArrow=block;" edge="1" parent="1">
          <mxGeometry y="10" width="80" relative="1" as="geometry">
            <mxPoint x="370" y="330" as="sourcePoint" />
            <mxPoint x="750" y="329.5" as="targetPoint" />
            <mxPoint y="1" as="offset" />
          </mxGeometry>
        </mxCell>
        <mxCell id="Xv19dBweNixnyUY2rDr5-36" value="获取商品数据" style="text;html=1;strokeColor=none;fillColor=none;align=center;verticalAlign=middle;whiteSpace=wrap;rounded=0;" vertex="1" parent="1">
          <mxGeometry x="240" y="190" width="90" height="20" as="geometry" />
        </mxCell>
        <mxCell id="Xv19dBweNixnyUY2rDr5-37" style="edgeStyle=orthogonalEdgeStyle;rounded=0;orthogonalLoop=1;jettySize=auto;html=1;" edge="1" parent="1">
          <mxGeometry relative="1" as="geometry">
            <mxPoint x="510" y="400" as="targetPoint" />
            <mxPoint x="750" y="400" as="sourcePoint" />
            <Array as="points">
              <mxPoint x="750" y="400" />
              <mxPoint x="490" y="400" />
            </Array>
          </mxGeometry>
        </mxCell>
        <mxCell id="Xv19dBweNixnyUY2rDr5-38" value="汇总拣货数" style="text;html=1;strokeColor=none;fillColor=none;align=center;verticalAlign=middle;whiteSpace=wrap;rounded=0;" vertex="1" parent="1">
          <mxGeometry x="580" y="410" width="70" height="20" as="geometry" />
        </mxCell>
        <mxCell id="Xv19dBweNixnyUY2rDr5-39" value="" style="html=1;points=[];perimeter=orthogonalPerimeter;" vertex="1" parent="1">
          <mxGeometry x="920" y="440" width="10" height="240" as="geometry" />
        </mxCell>
        <mxCell id="Xv19dBweNixnyUY2rDr5-41" value="job" style="html=1;" vertex="1" parent="1">
          <mxGeometry x="440" y="90" width="110" height="50" as="geometry" />
        </mxCell>
        <mxCell id="Xv19dBweNixnyUY2rDr5-44" value="" style="html=1;points=[];perimeter=orthogonalPerimeter;" vertex="1" parent="1">
          <mxGeometry x="480" y="350" width="10" height="170" as="geometry" />
        </mxCell>
        <mxCell id="Xv19dBweNixnyUY2rDr5-46" value="上报拣货数据" style="html=1;verticalAlign=bottom;endArrow=block;" edge="1" parent="1">
          <mxGeometry y="10" width="80" relative="1" as="geometry">
            <mxPoint x="500" y="490.5" as="sourcePoint" />
            <mxPoint x="920" y="490" as="targetPoint" />
            <mxPoint y="1" as="offset" />
          </mxGeometry>
        </mxCell>
        <mxCell id="Xv19dBweNixnyUY2rDr5-47" value="" style="html=1;points=[];perimeter=orthogonalPerimeter;" vertex="1" parent="1">
          <mxGeometry x="60" y="600" width="10" height="80" as="geometry" />
        </mxCell>
        <mxCell id="Xv19dBweNixnyUY2rDr5-49" style="edgeStyle=orthogonalEdgeStyle;rounded=0;orthogonalLoop=1;jettySize=auto;html=1;" edge="1" parent="1">
          <mxGeometry relative="1" as="geometry">
            <mxPoint x="80" y="630" as="targetPoint" />
            <mxPoint x="920" y="630" as="sourcePoint" />
          </mxGeometry>
        </mxCell>
        <mxCell id="Xv19dBweNixnyUY2rDr5-51" value="同步库存数web" style="text;html=1;strokeColor=none;fillColor=none;align=center;verticalAlign=middle;whiteSpace=wrap;rounded=0;" vertex="1" parent="1">
          <mxGeometry x="410" y="600" width="90" height="20" as="geometry" />
        </mxCell>
        <mxCell id="Xv19dBweNixnyUY2rDr5-53" value="库存&lt;br&gt;中心" style="text;html=1;strokeColor=none;fillColor=none;align=center;verticalAlign=middle;whiteSpace=wrap;rounded=0;" vertex="1" parent="1">
          <mxGeometry x="20" y="640" width="40" height="20" as="geometry" />
        </mxCell>
      </root>
    </mxGraphModel>
  </diagram>
</mxfile>
